SplineFontDB: 3.0
FontName: Arcactus
FullName: Arcactus
FamilyName: Arcactus
Weight: Regular
Copyright: Copyright (c) 2015, Peter Lindner,,,
UComments: "2015-12-16: Created with FontForge (http://fontforge.org)"
Version: 001.000
ItalicAngle: 0
UnderlinePosition: -102
UnderlineWidth: 51
Ascent: 819
Descent: 205
InvalidEm: 0
LayerCount: 2
Layer: 0 0 "Back" 1
Layer: 1 0 "Fore" 0
XUID: [1021 50 1564860054 6525480]
StyleMap: 0x0000
FSType: 0
OS2Version: 0
OS2_WeightWidthSlopeOnly: 0
OS2_UseTypoMetrics: 1
CreationTime: 1450290756
ModificationTime: 1452795403
OS2TypoAscent: 0
OS2TypoAOffset: 1
OS2TypoDescent: 0
OS2TypoDOffset: 1
OS2TypoLinegap: 92
OS2WinAscent: 0
OS2WinAOffset: 1
OS2WinDescent: 0
OS2WinDOffset: 1
HheadAscent: 0
HheadAOffset: 1
HheadDescent: 0
HheadDOffset: 1
MarkAttachClasses: 1
DEI: 91125
Encoding: ISO8859-1
UnicodeInterp: none
NameList: AGL For New Fonts
DisplaySize: -48
AntiAlias: 1
FitToEm: 0
WidthSeparation: 25
WinInfo: 0 27 9
BeginPrivate: 0
EndPrivate
BeginChars: 256 72

StartChar: zero
Encoding: 48 48 0
Width: 665
VWidth: 0
Flags: HW
LayerCount: 2
Fore
SplineSet
383 697 m 4
 576 695 652 586 652 454 c 0
 652 253 476 0 267 0 c 4
 104 0 12 158 12 323 c 0
 12 506 125 697 378 697 c 0
 380 697 381 697 383 697 c 4
221 245 m 4
 224 244 229 244 232 244 c 0
 272 244 311 308 311 357 c 0
 311 381 303 402 280 409 c 4
 275 410 270 411 266 411 c 0
 223 411 193 347 193 299 c 0
 193 273 201 251 221 245 c 4
EndSplineSet
Validated: 1
EndChar

StartChar: one
Encoding: 49 49 1
Width: 505
VWidth: 0
Flags: HW
LayerCount: 2
Fore
SplineSet
155 124 m 0
 175 264 234 343 234 376 c 0
 234 382 232 386 228 389 c 1
 197 322 157 297 119 297 c 0
 69 297 23 342 13 388 c 0
 12 392 12 397 12 402 c 0
 12 505 204 741 348 741 c 0
 349 741 l 0
 454 740 492 653 492 538 c 0
 492 428 458 295 417 186 c 0
 370 62 290 5 231 5 c 0
 186 5 153 38 153 97 c 0
 153 105 154 115 155 124 c 0
EndSplineSet
Validated: 1
EndChar

StartChar: two
Encoding: 50 50 2
Width: 571
VWidth: 0
Flags: HW
LayerCount: 2
Fore
SplineSet
177 257 m 4
 256 328 290 405 290 449 c 0
 290 472 281 484 265 484 c 0
 251 484 230 473 204 445 c 4
 176 415 147 402 121 402 c 0
 74 402 37 447 37 510 c 0
 37 545 48 586 74 629 c 4
 137 733 247 780 339 780 c 0
 391 780 437 765 466 736 c 4
 502 700 519 647 519 587 c 0
 519 484 468 355 372 250 c 4
 342 218 331 196 331 184 c 0
 331 171 343 167 362 167 c 0
 405 167 480 189 523 189 c 0
 539 189 551 186 554 177 c 4
 557 169 558 160 558 152 c 0
 558 75 448 2 289 2 c 0
 243 2 194 8 142 22 c 4
 47 48 12 71 12 99 c 0
 12 144 108 195 177 257 c 4
EndSplineSet
Validated: 1
EndChar

StartChar: three
Encoding: 51 51 3
Width: 538
VWidth: 0
Flags: HW
LayerCount: 2
Fore
SplineSet
91 49 m 4
 53 77 12 139 12 194 c 0
 12 210 17 227 26 241 c 4
 34 255 50 260 69 260 c 0
 108 260 160 241 201 241 c 0
 228 241 250 249 258 278 c 4
 260 286 261 293 261 300 c 0
 261 371 139 378 138 410 c 4
 138 417 137 423 137 429 c 0
 137 452 147 468 231 498 c 4
 285 517 313 556 313 580 c 0
 313 592 306 599 293 599 c 0
 282 599 265 594 243 579 c 4
 216 561 192 552 170 552 c 0
 122 552 92 593 92 647 c 0
 92 656 93 666 95 676 c 4
 105 730 222 764 331 764 c 0
 409 764 482 747 508 708 c 4
 520 690 524 667 524 643 c 0
 524 545 443 416 424 382 c 4
 423 380 422 378 422 376 c 0
 422 347 525 317 525 231 c 0
 525 199 511 161 473 112 c 4
 406 26 329 1 260 1 c 0
 174 1 103 40 91 49 c 4
EndSplineSet
Validated: 1
EndChar

StartChar: four
Encoding: 52 52 4
Width: 592
VWidth: 0
Flags: HW
LayerCount: 2
Fore
SplineSet
279 266 m 0
 255 276 234 281 215 281 c 0
 169 281 134 258 101 258 c 0
 82 258 63 265 43 289 c 0
 23 313 12 360 12 417 c 0
 12 558 75 758 198 797 c 0
 206 800 214 801 221 801 c 0
 256 801 266 767 266 719 c 0
 266 640 238 524 238 466 c 0
 238 442 242 429 254 429 c 0
 261 429 273 434 287 445 c 0
 428 560 281 712 449 734 c 0
 455 735 461 735 467 735 c 0
 559 735 579 634 579 525 c 0
 579 462 571 395 569 344 c 0
 559 122 496 6 382 0 c 0
 380 0 379 0 377 0 c 0
 337 0 330 31 330 72 c 0
 330 97 332 124 332 152 c 0
 332 200 324 246 279 266 c 0
EndSplineSet
Validated: 1
EndChar

StartChar: five
Encoding: 53 53 5
Width: 593
VWidth: 0
Flags: HW
LayerCount: 2
Fore
SplineSet
91 9 m 4
 47 19 12 56 12 139 c 0
 12 176 20 223 35 280 c 4
 44 315 60 328 80 328 c 0
 141 328 238 208 289 208 c 0
 309 208 323 228 323 283 c 0
 323 287 323 292 323 297 c 4
 320 381 288 398 246 398 c 0
 213 398 174 388 138 388 c 0
 76 388 22 421 22 601 c 0
 22 611 22 622 22 633 c 4
 26 758 134 787 242 787 c 0
 317 787 389 773 428 767 c 4
 538 749 553 725 555 649 c 4
 555 644 555 639 555 634 c 0
 555 552 531 524 496 524 c 0
 424 524 306 639 255 639 c 0
 239 639 229 628 229 599 c 0
 229 437 580 528 580 278 c 0
 580 273 580 267 580 261 c 4
 568 47 321 2 178 2 c 0
 139 2 108 5 91 9 c 4
EndSplineSet
Validated: 1
EndChar

StartChar: six
Encoding: 54 54 6
Width: 601
VWidth: 0
Flags: HW
LayerCount: 2
Fore
SplineSet
46 116 m 4
 24 160 12 212 12 270 c 0
 12 395 69 545 202 673 c 4
 279 746 343 774 395 774 c 0
 477 774 529 706 556 632 c 4
 558 625 559 618 559 613 c 0
 559 520 237 593 212 475 c 4
 211 471 211 467 211 463 c 0
 211 437 231 429 263 429 c 0
 312 429 388 447 453 447 c 0
 508 447 555 434 570 382 c 4
 581 331 588 289 588 254 c 0
 588 176 560 131 508 65 c 4
 475 23 397 1 313 1 c 0
 203 1 85 38 46 116 c 4
220 275 m 4
 208 261 202 240 202 222 c 0
 202 196 213 174 239 174 c 0
 256 174 279 185 310 213 c 4
 337 238 347 256 347 270 c 0
 347 292 322 302 293 302 c 0
 265 302 235 292 220 275 c 4
EndSplineSet
Validated: 1
EndChar

StartChar: seven
Encoding: 55 55 7
Width: 689
VWidth: 0
Flags: HW
LayerCount: 2
Fore
SplineSet
139 44 m 4
 133 51 130 59 130 68 c 0
 130 134 268 250 268 289 c 0
 268 297 261 301 246 301 c 0
 242 301 237 302 232 301 c 4
 225 300 219 299 214 299 c 0
 190 299 182 306 182 317 c 0
 182 346 246 398 284 398 c 0
 292 398 299 396 304 390 c 4
 310 383 318 380 326 380 c 0
 361 380 408 441 408 495 c 0
 408 505 405 516 401 525 c 4
 397 535 389 540 377 540 c 0
 322 540 199 451 129 451 c 0
 109 451 92 459 84 478 c 4
 64 525 12 593 12 651 c 0
 12 717 78 771 326 771 c 0
 328 771 331 771 333 771 c 4
 600 770 676 715 676 655 c 0
 676 608 629 557 593 525 c 4
 539 478 479 421 479 375 c 0
 479 351 496 330 536 314 c 4
 569 301 582 281 582 262 c 0
 582 226 538 189 498 189 c 0
 484 189 469 195 458 207 c 4
 444 223 426 230 408 230 c 0
 357 230 300 172 299 95 c 4
 298 33 263 2 222 2 c 0
 194 2 164 16 139 44 c 4
EndSplineSet
Validated: 1
EndChar

StartChar: eight
Encoding: 56 56 8
Width: 511
VWidth: 0
Flags: HW
LayerCount: 2
Fore
SplineSet
74 467 m 4
 46 492 12 562 12 632 c 0
 12 713 58 792 216 792 c 0
 219 792 223 792 226 792 c 4
 400 789 453 709 453 632 c 0
 453 575 423 519 391 499 c 4
 365 483 354 464 354 445 c 0
 354 408 397 368 456 331 c 4
 484 314 498 276 498 232 c 0
 498 133 419 0 230 0 c 0
 227 0 223 0 220 0 c 4
 63 4 17 92 17 179 c 0
 17 249 48 317 76 341 c 4
 107 367 121 384 121 402 c 0
 121 420 105 440 74 467 c 4
209 588 m 4
 170 586 154 566 154 544 c 0
 154 521 172 500 204 498 c 4
 205 498 206 498 207 498 c 0
 240 498 260 524 260 549 c 0
 260 569 247 588 214 588 c 0
 212 588 211 588 209 588 c 4
214 113 m 4
 258 116 278 148 278 180 c 0
 278 215 254 249 215 249 c 0
 213 249 211 249 209 249 c 4
 168 245 145 209 145 175 c 0
 145 143 165 113 207 113 c 0
 209 113 212 113 214 113 c 4
EndSplineSet
Validated: 1
EndChar

StartChar: nine
Encoding: 57 57 9
Width: 530
VWidth: 0
Flags: HW
LayerCount: 2
Fore
SplineSet
54 29 m 4
 46 39 42 53 42 67 c 0
 42 161 189 321 189 353 c 0
 189 356 187 359 184 359 c 4
 183 359 183 359 182 359 c 0
 163 359 139 340 112 340 c 0
 80 340 45 369 18 498 c 4
 13 521 12 542 12 561 c 0
 12 694 114 764 243 764 c 0
 297 764 358 752 417 726 c 4
 491 695 517 640 517 577 c 0
 517 450 410 286 356 203 c 4
 294 106 185 1 109 1 c 0
 87 1 68 10 54 29 c 4
152 588 m 4
 135 571 128 550 128 535 c 0
 128 517 138 503 153 503 c 0
 166 503 185 513 204 538 c 4
 222 562 230 581 230 594 c 0
 230 609 220 617 206 617 c 0
 191 617 171 608 152 588 c 4
EndSplineSet
Validated: 1
EndChar

StartChar: plus
Encoding: 43 43 10
Width: 719
VWidth: 0
Flags: HW
LayerCount: 2
Fore
SplineSet
364 81 m 0
 285 83 269 120 269 165 c 0
 269 194 275 224 275 252 c 0
 275 270 273 287 263 299 c 0
 254 310 238 314 220 314 c 0
 186 314 141 302 102 302 c 0
 52 302 12 323 12 411 c 0
 12 493 51 514 99 514 c 0
 154 514 222 484 255 484 c 0
 261 484 265 486 268 488 c 0
 273 491 275 498 275 507 c 0
 275 535 257 583 257 625 c 0
 257 667 276 703 354 703 c 0
 355 703 355 703 356 703 c 0
 439 702 461 662 461 616 c 0
 461 573 443 526 443 499 c 0
 443 491 445 485 449 481 c 0
 453 478 459 476 467 476 c 0
 498 476 555 495 605 495 c 0
 657 495 704 475 706 395 c 0
 706 393 706 391 706 389 c 0
 706 315 669 297 624 297 c 0
 581 297 531 313 498 313 c 0
 486 313 476 311 470 306 c 0
 461 298 458 282 458 263 c 0
 458 239 462 210 462 181 c 0
 462 129 448 81 368 81 c 0
 367 81 365 81 364 81 c 0
EndSplineSet
Validated: 1
EndChar

StartChar: A
Encoding: 65 65 11
Width: 885
VWidth: 0
Flags: HW
LayerCount: 2
Fore
SplineSet
496 756 m 4
 670 754 748 637 795 519 c 4
 829 435 872 305 872 196 c 0
 872 98 836 17 723 9 c 4
 714 8 705 8 697 8 c 0
 497 8 600 209 456 209 c 0
 454 209 451 208 449 208 c 4
 323 203 271 2 167 2 c 0
 138 2 106 17 67 55 c 4
 29 92 12 140 12 194 c 0
 12 400 250 687 419 743 c 4
 445 751 469 756 493 756 c 0
 494 756 495 756 496 756 c 4
429 481 m 4
 415 455 410 436 410 422 c 0
 410 404 420 394 432 394 c 0
 446 394 464 405 475 428 c 4
 484 445 488 467 488 485 c 0
 488 507 482 524 470 524 c 0
 460 524 446 512 429 481 c 4
EndSplineSet
Validated: 1
EndChar

StartChar: B
Encoding: 66 66 12
Width: 698
VWidth: 0
Flags: HW
LayerCount: 2
Fore
SplineSet
343 817 m 4
 517 811 555 704 555 614 c 0
 555 545 532 486 532 486 c 5
 532 486 685 470 685 233 c 0
 685 221 685 208 684 195 c 4
 676 70 537 2 389 2 c 0
 212 2 20 97 14 302 c 4
 13 341 12 377 12 411 c 0
 12 698 63 817 314 817 c 0
 323 817 334 817 343 817 c 4
268 573 m 4
 267 574 265 574 264 574 c 0
 249 574 237 544 237 524 c 0
 237 515 239 508 245 506 c 4
 246 506 247 505 248 505 c 0
 262 505 279 535 279 555 c 0
 279 563 275 570 268 573 c 4
280 343 m 4
 276 345 272 346 269 346 c 0
 252 346 241 322 241 294 c 0
 241 271 248 246 265 231 c 4
 270 226 277 224 281 224 c 0
 296 224 304 251 304 279 c 0
 304 306 296 334 280 343 c 4
EndSplineSet
Validated: 1
EndChar

StartChar: C
Encoding: 67 67 13
Width: 640
VWidth: 0
Flags: HW
LayerCount: 2
Fore
SplineSet
14 265 m 4
 12 300 12 333 12 364 c 0
 12 655 100 726 274 780 c 4
 301 788 328 793 356 793 c 0
 489 793 627 706 627 603 c 0
 627 570 613 536 580 501 c 4
 543 463 514 449 490 449 c 0
 425 449 400 555 348 555 c 0
 338 555 328 552 316 543 c 4
 281 517 267 466 267 412 c 0
 267 331 298 247 335 247 c 0
 344 247 353 252 362 263 c 4
 396 305 442 325 485 325 c 0
 534 325 580 299 598 252 c 4
 608 226 612 203 612 181 c 0
 612 65 485 1 348 1 c 0
 192 1 24 83 14 265 c 4
EndSplineSet
Validated: 1
EndChar

StartChar: D
Encoding: 68 68 14
Width: 735
VWidth: 0
Flags: HW
LayerCount: 2
Fore
SplineSet
250 814 m 4
 251 814 251 814 252 814 c 0
 291 814 336 812 389 805 c 4
 615 776 722 597 722 419 c 0
 722 259 637 100 476 50 c 4
 373 17 291 4 229 4 c 0
 85 4 37 77 34 165 c 4
 34 169 33 172 33 176 c 0
 33 310 114 334 119 427 c 4
 119 430 119 433 119 436 c 0
 119 523 41 531 18 637 c 4
 16 645 12 661 12 680 c 0
 12 734 44 813 250 814 c 4
378 412 m 4
 365 407 356 381 356 361 c 0
 356 345 362 332 373 332 c 0
 377 332 381 333 387 337 c 4
 399 345 416 377 416 397 c 0
 416 408 410 417 398 417 c 0
 393 417 386 415 378 412 c 4
EndSplineSet
Validated: 1
EndChar

StartChar: F
Encoding: 70 70 15
Width: 765
VWidth: 0
Flags: HW
LayerCount: 2
Fore
SplineSet
56 253 m 4
 25 339 12 414 12 480 c 0
 12 674 138 774 344 782 c 4
 367 783 389 783 409 783 c 0
 632 783 704 728 741 649 c 4
 748 634 752 615 752 597 c 0
 752 531 708 459 645 459 c 0
 628 459 608 464 588 477 c 4
 575 485 455 609 367 609 c 0
 345 609 324 602 309 583 c 4
 290 559 281 538 281 522 c 0
 281 441 474 436 474 378 c 0
 474 318 371 335 371 295 c 0
 371 290 372 283 376 276 c 4
 398 235 428 162 428 109 c 0
 428 91 424 72 415 61 c 4
 401 44 354 2 294 2 c 0
 226 2 138 54 56 253 c 4
EndSplineSet
Validated: 1
EndChar

StartChar: E
Encoding: 69 69 16
Width: 712
VWidth: 0
Flags: HW
LayerCount: 2
Fore
SplineSet
345 559 m 4
 319 554 310 546 310 537 c 0
 310 509 394 466 394 409 c 0
 394 405 394 400 393 395 c 4
 376 320 287 367 287 321 c 0
 287 315 288 306 292 296 c 4
 305 259 313 245 324 245 c 0
 339 245 364 270 422 300 c 4
 437 308 454 311 469 311 c 0
 547 311 618 222 618 125 c 0
 618 115 616 105 615 95 c 4
 606 34 518 -1 412 -1 c 0
 299 -1 167 38 88 128 c 4
 38 185 12 281 12 382 c 0
 12 577 110 792 328 792 c 0
 344 792 363 790 381 787 c 4
 611 753 699 677 699 600 c 0
 699 551 663 502 605 463 c 4
 577 445 555 437 536 437 c 0
 458 437 437 561 361 561 c 0
 356 561 350 560 345 559 c 4
EndSplineSet
Validated: 1
EndChar

StartChar: G
Encoding: 71 71 17
Width: 690
VWidth: 0
Flags: HW
LayerCount: 2
Fore
SplineSet
13 394 m 4
 38 697 232 809 383 809 c 0
 482 809 563 761 563 687 c 0
 563 679 561 668 559 659 c 4
 539 576 509 555 474 555 c 0
 437 555 396 580 358 580 c 0
 342 580 327 575 313 563 c 4
 255 511 229 446 229 395 c 0
 229 345 254 309 298 309 c 0
 302 309 305 309 309 310 c 4
 408 324 276 477 457 490 c 4
 462 490 467 490 472 490 c 0
 613 490 677 336 677 202 c 0
 677 100 640 9 572 9 c 0
 570 9 567 9 565 9 c 4
 515 13 494 20 457 20 c 0
 427 20 386 16 312 5 c 4
 303 4 295 2 286 2 c 0
 133 2 12 206 12 369 c 0
 12 377 12 386 13 394 c 4
EndSplineSet
Validated: 1
EndChar

StartChar: H
Encoding: 72 72 18
Width: 698
VWidth: 0
Flags: HW
LayerCount: 2
Fore
SplineSet
30 512 m 0
 45 673 119 804 224 804 c 0
 232 804 241 804 250 802 c 0
 341 785 357 720 357 655 c 0
 357 618 351 582 351 553 c 0
 351 522 358 501 385 501 c 0
 387 501 388 501 390 501 c 0
 479 509 440 716 524 746 c 0
 539 751 555 755 568 755 c 0
 638 755 685 690 685 609 c 0
 685 604 685 600 685 595 c 0
 677 475 626 391 601 288 c 0
 597 272 596 250 596 230 c 0
 596 188 601 140 601 98 c 0
 601 42 591 -2 544 -4 c 0
 542 -4 541 -5 539 -5 c 0
 382 -5 430 249 360 249 c 0
 358 249 356 249 353 248 c 0
 273 230 403 30 183 11 c 0
 182 11 182 11 181 11 c 0
 80 11 12 83 12 293 c 0
 12 353 18 426 30 512 c 0
EndSplineSet
Validated: 1
EndChar

StartChar: I
Encoding: 73 73 19
Width: 308
VWidth: 0
Flags: HW
LayerCount: 2
Fore
SplineSet
47 36 m 4
 21 72 12 109 12 148 c 0
 12 226 49 308 61 382 c 4
 63 394 65 407 65 421 c 0
 65 502 35 610 35 694 c 0
 35 765 56 818 136 820 c 4
 139 820 142 820 144 820 c 0
 263 820 295 752 295 669 c 0
 295 580 258 473 253 422 c 4
 252 413 251 402 251 393 c 0
 251 317 278 249 278 174 c 0
 278 162 277 149 275 137 c 4
 263 42 190 0 128 0 c 0
 94 0 63 13 47 36 c 4
EndSplineSet
Validated: 1
EndChar

StartChar: J
Encoding: 74 74 20
Width: 742
VWidth: 0
Flags: HW
LayerCount: 2
Fore
SplineSet
396 226 m 4
 453 283 494 383 494 474 c 0
 494 533 476 589 434 626 c 4
 411 645 387 653 361 653 c 0
 275 653 177 569 105 569 c 0
 61 569 27 601 13 702 c 4
 12 706 12 711 12 715 c 0
 12 788 120 801 226 801 c 0
 277 801 329 799 367 797 c 4
 490 792 729 789 729 678 c 0
 729 674 728 670 727 665 c 4
 716 597 714 537 714 483 c 0
 714 407 720 342 720 283 c 0
 720 232 714 184 697 137 c 4
 667 55 520 1 367 1 c 0
 276 1 182 21 111 65 c 4
 94 75 87 97 87 121 c 0
 87 151 99 183 116 201 c 4
 132 218 153 224 179 224 c 0
 226 224 284 204 332 204 c 0
 357 204 380 210 396 226 c 4
EndSplineSet
Validated: 1
EndChar

StartChar: K
Encoding: 75 75 21
Width: 784
VWidth: 0
Flags: HW
LayerCount: 2
Fore
SplineSet
125 766 m 4
 152 792 192 813 229 813 c 0
 241 813 254 810 264 805 c 4
 335 769 282 564 338 564 c 0
 342 564 346 565 351 567 c 4
 473 619 510 774 625 774 c 0
 692 774 771 742 771 665 c 0
 771 643 766 620 752 592 c 4
 703 493 452 391 452 341 c 0
 452 332 460 323 482 318 c 4
 604 287 771 207 771 122 c 0
 771 92 750 62 699 33 c 4
 662 13 626 3 591 3 c 0
 428 3 294 190 260 215 c 4
 257 217 254 219 253 219 c 0
 252 219 251 218 251 216 c 0
 251 203 279 147 279 96 c 0
 279 47 253 1 151 1 c 0
 150 1 151 1 150 1 c 4
 3 2 27 296 14 429 c 4
 13 441 12 455 12 468 c 0
 12 571 49 693 125 766 c 4
EndSplineSet
Validated: 1
EndChar

StartChar: L
Encoding: 76 76 22
Width: 655
VWidth: 0
Flags: HW
LayerCount: 2
Fore
SplineSet
33 67 m 4
 18 86 12 109 12 134 c 0
 12 204 56 287 56 353 c 0
 56 359 55 367 54 373 c 4
 47 420 40 488 40 558 c 0
 40 679 61 799 137 799 c 0
 138 799 141 799 142 799 c 4
 305 789 294 638 309 551 c 4
 310 547 311 542 311 536 c 0
 311 484 283 385 283 309 c 0
 283 274 289 244 306 227 c 4
 320 213 338 207 356 207 c 0
 411 207 483 255 544 255 c 0
 552 255 560 255 568 253 c 4
 619 241 642 185 642 132 c 0
 642 100 634 70 620 48 c 4
 591 5 539 -5 483 -5 c 0
 426 -5 361 6 309 8 c 4
 300 8 291 9 281 9 c 0
 261 9 240 8 218 8 c 0
 145 8 73 15 33 67 c 4
EndSplineSet
Validated: 1
EndChar

StartChar: M
Encoding: 77 77 23
Width: 926
VWidth: 0
Flags: HW
LayerCount: 2
Fore
SplineSet
190 -2 m 4
 65 18 12 193 12 368 c 0
 12 535 60 702 142 738 c 4
 170 750 194 756 216 756 c 0
 344 756 371 571 417 571 c 0
 420 571 424 572 427 574 c 4
 464 593 563 781 678 781 c 0
 695 781 713 777 731 767 c 4
 836 708 913 457 913 260 c 0
 913 132 882 25 804 9 c 4
 795 7 785 6 777 6 c 0
 623 6 734 352 599 354 c 4
 598 354 l 0
 545 354 565 280 452 246 c 4
 448 245 442 244 438 244 c 0
 384 244 389 367 343 370 c 4
 342 370 340 370 339 370 c 0
 214 370 317 -3 201 -3 c 0
 198 -3 193 -3 190 -2 c 4
EndSplineSet
Validated: 1
EndChar

StartChar: N
Encoding: 78 78 24
Width: 758
VWidth: 0
Flags: HW
LayerCount: 2
Fore
SplineSet
136 12 m 4
 60 34 12 244 12 435 c 0
 12 586 43 724 114 751 c 4
 127 756 141 759 154 759 c 0
 325 759 464 368 511 368 c 0
 516 368 520 373 523 384 c 4
 524 389 525 394 525 399 c 0
 525 464 444 576 444 660 c 0
 444 713 477 755 581 766 c 4
 585 766 589 767 593 767 c 0
 702 767 745 603 745 427 c 0
 745 241 697 40 624 12 c 4
 606 5 587 2 571 2 c 0
 403 2 372 359 317 359 c 0
 310 359 303 354 295 341 c 4
 289 331 286 314 286 294 c 0
 286 250 297 187 297 132 c 0
 297 61 280 2 202 2 c 0
 184 2 162 5 136 12 c 4
EndSplineSet
Validated: 1
EndChar

StartChar: O
Encoding: 79 79 25
Width: 771
VWidth: 0
Flags: HW
LayerCount: 2
Fore
SplineSet
382 807 m 4
 400 807 419 804 438 799 c 4
 620 752 758 558 758 373 c 0
 758 205 645 44 352 6 c 4
 330 3 310 2 291 2 c 0
 92 2 12 142 12 306 c 0
 12 534 169 807 377 807 c 0
 379 807 380 807 382 807 c 4
367 544 m 4
 332 538 312 486 312 439 c 0
 312 397 329 358 366 358 c 0
 367 358 369 358 370 358 c 4
 408 361 425 405 425 449 c 0
 425 496 406 544 373 544 c 0
 371 544 369 544 367 544 c 4
EndSplineSet
Validated: 1
EndChar

StartChar: P
Encoding: 80 80 26
Width: 734
VWidth: 0
Flags: HW
LayerCount: 2
Fore
SplineSet
236 799 m 4
 383 798 564 741 648 657 c 4
 694 611 721 532 721 458 c 0
 721 398 704 341 664 307 c 4
 646 291 614 287 580 287 c 0
 548 287 513 291 483 291 c 0
 437 291 400 283 400 244 c 0
 400 241 401 238 401 235 c 4
 403 220 404 203 404 186 c 0
 404 98 374 1 281 1 c 0
 255 1 224 9 188 26 c 4
 159 40 149 74 149 119 c 0
 149 229 210 400 210 476 c 0
 210 500 204 515 188 515 c 0
 182 515 174 512 165 508 c 4
 153 502 118 482 84 482 c 0
 47 482 12 507 12 606 c 0
 12 628 13 653 17 683 c 4
 27 765 119 799 232 799 c 0
 233 799 235 799 236 799 c 4
443 569 m 4
 427 569 410 532 410 502 c 0
 410 483 417 466 435 466 c 4
 436 466 l 0
 460 466 472 495 472 522 c 0
 472 546 463 569 443 569 c 4
EndSplineSet
Validated: 1
EndChar

StartChar: Q
Encoding: 81 81 27
Width: 796
VWidth: 0
Flags: HW
LayerCount: 2
Fore
SplineSet
433 801 m 4
 571 800 664 726 732 610 c 4
 768 549 781 483 781 422 c 0
 781 326 746 243 707 217 c 4
 701 213 699 210 699 206 c 0
 699 182 783 150 783 101 c 0
 783 81 769 58 727 31 c 4
 700 13 676 7 655 7 c 0
 603 7 566 45 523 45 c 0
 517 45 510 45 504 43 c 4
 444 26 374 1 303 1 c 0
 224 1 144 32 80 142 c 4
 38 214 12 306 12 400 c 0
 12 556 85 713 279 776 c 4
 335 793 385 801 430 801 c 0
 431 801 432 801 433 801 c 4
331 575 m 4
 326 575 320 571 314 562 c 4
 286 523 276 492 276 467 c 0
 276 433 296 412 318 403 c 4
 320 402 323 402 325 402 c 0
 347 402 357 447 357 491 c 0
 357 533 348 575 331 575 c 4
EndSplineSet
Validated: 1
EndChar

StartChar: R
Encoding: 82 82 28
Width: 697
VWidth: 0
Flags: HW
LayerCount: 2
Fore
SplineSet
333 816 m 4
 455 816 577 775 614 709 c 4
 665 619 684 549 684 493 c 0
 684 389 616 336 560 301 c 4
 508 269 480 276 480 274 c 0
 480 273 487 270 499 260 c 4
 594 186 674 125 674 78 c 0
 674 50 646 27 577 9 c 4
 559 4 541 2 524 2 c 0
 393 2 317 135 282 135 c 0
 276 135 272 132 268 124 c 4
 252 92 238 12 157 12 c 0
 152 12 146 12 140 13 c 4
 44 25 12 60 12 107 c 0
 12 204 148 353 148 457 c 0
 148 479 142 498 128 515 c 4
 112 534 28 501 28 581 c 0
 28 604 36 637 54 684 c 4
 89 776 209 816 330 816 c 0
 331 816 332 816 333 816 c 4
351 570 m 4
 337 569 325 555 325 530 c 0
 325 517 328 501 337 482 c 4
 344 467 351 461 358 461 c 0
 373 461 385 489 385 513 c 4
 385 552 369 570 353 570 c 0
 351 570 l 4
EndSplineSet
Validated: 1
EndChar

StartChar: S
Encoding: 83 83 29
Width: 696
VWidth: 0
Flags: HW
LayerCount: 2
Fore
SplineSet
25 116 m 4
 22 131 21 146 21 158 c 0
 21 232 75 250 136 250 c 0
 192 250 254 234 282 234 c 0
 289 234 293 235 295 237 c 4
 308 250 314 261 314 272 c 0
 314 344 56 380 25 468 c 4
 16 493 12 517 12 539 c 0
 12 667 146 753 295 774 c 4
 323 778 349 780 373 780 c 0
 565 780 638 661 638 567 c 0
 638 505 606 454 556 454 c 0
 543 454 530 457 515 464 c 4
 500 471 482 475 464 475 c 0
 411 475 354 449 354 433 c 0
 354 427 362 423 378 421 c 4
 586 400 683 298 683 204 c 0
 683 202 683 200 683 198 c 4
 678 76 462 2 279 2 c 0
 152 2 41 37 25 116 c 4
EndSplineSet
Validated: 1
EndChar

StartChar: T
Encoding: 84 84 30
Width: 868
VWidth: 0
Flags: HW
LayerCount: 2
Fore
SplineSet
393 6 m 4
 306 16 281 83 281 167 c 0
 281 285 331 436 331 507 c 0
 331 533 325 548 307 548 c 0
 301 548 293 546 284 542 c 4
 269 535 242 531 210 531 c 0
 126 531 12 560 12 651 c 0
 12 660 14 670 16 680 c 4
 38 773 93 800 160 800 c 0
 258 800 381 741 458 741 c 0
 540 741 632 765 706 765 c 0
 777 765 832 743 848 656 c 4
 853 629 855 605 855 586 c 0
 855 507 818 487 769 487 c 0
 714 487 643 513 592 513 c 0
 559 513 549 485 549 441 c 0
 549 373 573 269 573 179 c 0
 573 83 545 3 429 3 c 0
 418 3 406 4 393 6 c 4
EndSplineSet
Validated: 1
EndChar

StartChar: U
Encoding: 85 85 31
Width: 709
VWidth: 0
Flags: HW
LayerCount: 2
Fore
SplineSet
410 1 m 0
 109 1 12 214 12 419 c 0
 12 608 94 790 177 790 c 0
 179 790 182 790 184 790 c 4
 297 776 326 703 326 618 c 0
 326 528 294 424 294 359 c 0
 294 320 305 296 341 296 c 0
 358 296 381 301 411 314 c 4
 452 331 462 374 462 426 c 0
 462 483 450 551 450 612 c 0
 450 690 470 756 562 771 c 5
 639 749 696 581 696 407 c 0
 696 207 620 1 410 1 c 0
EndSplineSet
Validated: 1
EndChar

StartChar: V
Encoding: 86 86 32
Width: 835
VWidth: 0
Flags: HW
LayerCount: 2
Fore
SplineSet
358 4 m 4
 235 26 12 434 12 659 c 0
 12 727 32 778 81 797 c 4
 107 807 131 812 151 812 c 0
 352 812 300 373 359 373 c 0
 361 373 364 374 366 375 c 4
 456 417 344 812 628 812 c 0
 649 812 672 810 697 805 c 4
 784 789 822 710 822 606 c 0
 822 367 625 1 395 1 c 0
 383 1 371 2 358 4 c 4
EndSplineSet
Validated: 1
EndChar

StartChar: W
Encoding: 87 87 33
Width: 939
VWidth: 0
Flags: HW
LayerCount: 2
Fore
SplineSet
232 16 m 4
 109 26 12 305 12 520 c 0
 12 642 43 743 118 763 c 4
 133 767 147 769 159 769 c 0
 321 769 204 422 296 404 c 4
 297 404 298 404 299 404 c 0
 338 404 396 518 431 522 c 4
 433 522 434 523 436 523 c 0
 487 523 522 434 568 434 c 0
 569 434 569 434 570 434 c 4
 678 441 567 797 815 797 c 0
 816 797 818 797 819 797 c 4
 895 796 926 724 926 624 c 0
 926 390 757 0 605 0 c 0
 597 0 590 1 583 3 c 4
 457 37 504 211 422 223 c 4
 420 223 418 223 416 223 c 0
 341 223 365 16 242 16 c 0
 239 16 235 16 232 16 c 4
EndSplineSet
Validated: 1
EndChar

StartChar: X
Encoding: 88 88 34
Width: 792
VWidth: 0
Flags: HW
LayerCount: 2
Fore
SplineSet
53 42 m 4
 29 70 19 100 19 130 c 0
 19 232 137 335 239 383 c 4
 246 386 248 389 248 393 c 0
 248 428 12 498 12 627 c 0
 12 657 25 690 57 727 c 4
 95 770 131 788 166 788 c 0
 289 788 389 575 417 557 c 4
 419 555 422 554 424 554 c 0
 461 554 476 764 623 764 c 0
 641 764 662 761 684 754 c 4
 753 732 779 702 779 667 c 0
 779 570 579 441 579 367 c 0
 579 307 708 185 708 94 c 0
 708 54 684 22 614 4 c 4
 600 1 588 -1 576 -1 c 0
 421 -1 395 267 343 267 c 0
 339 267 336 266 332 263 c 4
 265 216 207 2 120 2 c 0
 99 2 77 13 53 42 c 4
EndSplineSet
Validated: 1
EndChar

StartChar: Y
Encoding: 89 89 35
Width: 818
VWidth: 0
Flags: HW
LayerCount: 2
Fore
SplineSet
303 17 m 4
 229 35 207 70 207 112 c 0
 207 176 258 257 258 320 c 0
 258 328 258 336 256 343 c 4
 241 403 12 589 12 707 c 0
 12 750 43 784 125 799 c 4
 146 803 165 804 182 804 c 0
 396 804 356 540 408 540 c 0
 412 540 417 541 422 545 c 4
 467 575 530 777 696 777 c 0
 705 777 715 776 724 775 c 4
 781 768 805 737 805 695 c 0
 805 591 660 418 502 347 c 4
 479 337 471 315 471 287 c 0
 471 231 503 149 503 88 c 0
 503 39 482 3 406 3 c 0
 379 3 345 7 303 17 c 4
EndSplineSet
Validated: 1
EndChar

StartChar: Z
Encoding: 90 90 36
Width: 668
VWidth: 0
Flags: HW
LayerCount: 2
Fore
SplineSet
14 634 m 4
 18 750 205 815 375 815 c 0
 514 815 650 771 650 673 c 0
 650 613 458 508 458 404 c 0
 458 399 459 394 459 389 c 0
 459 339 354 278 354 242 c 0
 354 227 373 216 425 212 c 4
 426 212 426 212 427 212 c 0
 467 212 570 287 623 287 c 0
 643 287 655 276 655 248 c 0
 655 215 639 159 596 67 c 4
 578 27 472 4 357 4 c 0
 214 4 57 40 32 122 c 4
 31 127 30 130 30 135 c 0
 30 205 187 266 187 324 c 0
 187 326 187 329 186 331 c 4
 185 336 184 341 184 346 c 0
 184 426 331 483 331 555 c 0
 331 566 327 579 319 591 c 4
 311 602 303 607 293 607 c 0
 225 607 117 371 57 371 c 0
 30 371 12 418 12 554 c 0
 12 578 13 604 14 634 c 4
EndSplineSet
Validated: 1
EndChar

StartChar: colon
Encoding: 58 58 37
Width: 171
VWidth: 0
Flags: HW
LayerCount: 2
Fore
SplineSet
19 181 m 4
 14 191 12 202 12 214 c 4
 12 255 40 299 77 299 c 4
 98 299 122 285 146 248 c 4
 154 235 158 223 158 211 c 4
 158 172 119 141 81 141 c 4
 57 141 34 153 19 181 c 4
35 403 m 4
 34 407 33 411 33 415 c 4
 33 439 57 460 81 460 c 4
 96 460 109 452 118 431 c 4
 120 425 122 419 122 414 c 4
 122 389 99 370 76 370 c 4
 60 370 44 379 35 403 c 4
EndSplineSet
Validated: 1
EndChar

StartChar: hyphen
Encoding: 45 45 38
Width: 632
VWidth: 0
Flags: HW
LayerCount: 2
Fore
SplineSet
325 332 m 0
 318 333 311 333 303 333 c 0
 248 333 170 317 109 317 c 0
 54 317 12 330 12 379 c 0
 12 440 87 452 169 452 c 0
 220 452 273 447 312 447 c 0
 313 447 l 0
 353 447 409 452 462 452 c 0
 544 452 619 441 619 380 c 0
 619 331 613 312 552 312 c 0
 510 312 440 320 325 332 c 0
EndSplineSet
Validated: 1
EndChar

StartChar: parenleft
Encoding: 40 40 39
Width: 431
VWidth: 0
Flags: HW
LayerCount: 2
Fore
SplineSet
346 35 m 4
 341 16 308 2 264 2 c 0
 173 2 36 61 13 257 c 4
 12 263 12 269 12 275 c 0
 12 451 271 798 380 798 c 0
 397 798 410 791 418 773 c 4
 419 772 418 770 418 768 c 0
 418 718 187 467 187 329 c 0
 187 326 188 323 188 320 c 4
 199 183 348 124 348 49 c 0
 348 44 347 40 346 35 c 4
EndSplineSet
Validated: 1
EndChar

StartChar: parenright
Encoding: 41 41 40
Width: 431
VWidth: 0
Flags: HW
LayerCount: 2
Fore
SplineSet
84 34 m 4
 83 39 82 44 82 49 c 0
 82 124 232 183 243 320 c 4
 243 323 243 326 243 329 c 0
 243 467 12 718 12 768 c 0
 12 770 12 771 13 772 c 4
 21 790 34 798 51 798 c 0
 160 798 418 451 418 275 c 0
 418 269 418 262 417 256 c 4
 394 60 258 1 167 1 c 0
 123 1 89 15 84 34 c 4
EndSplineSet
Validated: 1
EndChar

StartChar: a
Encoding: 97 97 42
Width: 669
VWidth: -6
Flags: HW
LayerCount: 2
Fore
SplineSet
374 562 m 4
 504 560 564 472 599 384 c 4
 625 321 656 224 656 142 c 0
 656 68 630 8 545 2 c 4
 538 1 531 1 525 1 c 0
 375 1 452 152 344 152 c 0
 342 152 341 151 339 151 c 4
 245 147 206 -4 128 -4 c 0
 106 -4 82 8 53 36 c 4
 25 64 12 100 12 140 c 0
 12 294 190 510 317 552 c 4
 337 558 354 562 372 562 c 0
 373 562 373 562 374 562 c 4
324 356 m 4
 314 336 310 321 310 311 c 0
 310 297 317 290 326 290 c 0
 336 290 351 299 359 316 c 4
 366 329 368 344 368 358 c 0
 368 374 364 388 355 388 c 0
 347 388 337 379 324 356 c 4
EndSplineSet
Validated: 1
EndChar

StartChar: b
Encoding: 98 98 43
Width: 530
VWidth: 2
Flags: HW
LayerCount: 2
Fore
SplineSet
260 615 m 4
 390 611 419 531 419 463 c 0
 419 411 402 367 402 367 c 5
 402 367 517 355 517 177 c 0
 517 168 517 159 516 149 c 4
 510 55 406 4 295 4 c 0
 162 4 18 75 14 229 c 4
 13 258 12 285 12 311 c 0
 12 526 51 615 239 615 c 0
 246 615 253 615 260 615 c 4
204 432 m 4
 203 433 202 433 201 433 c 0
 190 433 181 410 181 395 c 0
 181 388 183 384 187 382 c 4
 188 382 188 381 189 381 c 0
 199 381 212 404 212 419 c 0
 212 425 209 430 204 432 c 4
213 260 m 4
 210 262 207 262 205 262 c 0
 192 262 184 244 184 223 c 0
 184 206 189 187 202 176 c 4
 206 172 211 170 214 170 c 0
 225 170 231 191 231 212 c 0
 231 232 225 253 213 260 c 4
EndSplineSet
Validated: 1
EndChar

StartChar: c
Encoding: 99 99 44
Width: 486
VWidth: -1
Flags: HW
LayerCount: 2
Fore
SplineSet
13 198 m 4
 12 211 12 224 12 236 c 0
 12 248 12 260 12 272 c 0
 12 490 78 544 208 584 c 4
 228 590 249 594 270 594 c 0
 370 594 473 529 473 452 c 0
 473 427 463 401 438 375 c 4
 410 347 388 336 370 336 c 0
 321 336 303 416 264 416 c 0
 256 416 249 413 240 406 c 4
 214 386 203 348 203 308 c 0
 203 247 226 184 254 184 c 0
 261 184 267 188 274 196 c 4
 300 228 335 243 367 243 c 0
 404 243 437 223 451 188 c 4
 459 168 462 151 462 135 c 0
 462 48 367 0 264 0 c 0
 147 0 21 62 13 198 c 4
EndSplineSet
Validated: 1
EndChar

StartChar: d
Encoding: 100 100 45
Width: 557
VWidth: 2
Flags: HW
LayerCount: 2
Fore
SplineSet
190 613 m 4
 191 613 191 613 192 613 c 0
 221 613 255 611 295 606 c 4
 465 584 544 450 544 316 c 0
 544 196 481 78 360 40 c 4
 283 15 221 5 175 5 c 0
 67 5 30 60 28 126 c 4
 28 129 27 131 27 134 c 0
 27 234 88 252 92 322 c 4
 92 324 92 327 92 329 c 0
 92 394 33 400 16 480 c 4
 14 486 12 498 12 512 c 0
 12 552 36 612 190 613 c 4
286 311 m 4
 276 307 270 288 270 273 c 0
 270 261 275 251 283 251 c 0
 286 251 289 252 293 255 c 4
 302 261 315 285 315 300 c 0
 315 308 310 315 301 315 c 0
 297 315 292 313 286 311 c 4
EndSplineSet
Validated: 1
EndChar

StartChar: e
Encoding: 101 101 46
Width: 540
VWidth: -2
Flags: HW
LayerCount: 2
Fore
SplineSet
262 418 m 4
 242 414 235 409 235 402 c 0
 235 381 298 349 298 306 c 0
 298 303 299 299 298 295 c 4
 285 239 218 274 218 240 c 0
 218 236 219 229 222 221 c 4
 232 193 238 183 246 183 c 0
 257 183 275 202 319 224 c 4
 330 230 344 232 355 232 c 0
 413 232 466 166 466 93 c 0
 466 85 465 78 464 70 c 4
 457 24 392 -2 312 -2 c 0
 227 -2 128 27 69 95 c 4
 31 138 12 209 12 285 c 0
 12 431 85 593 249 593 c 0
 261 593 275 591 289 589 c 4
 461 563 527 507 527 449 c 0
 527 412 501 375 457 346 c 4
 436 332 419 327 405 327 c 0
 347 327 331 420 274 420 c 0
 270 420 266 419 262 418 c 4
EndSplineSet
Validated: 1
EndChar

StartChar: f
Encoding: 102 102 47
Width: 581
VWidth: -2
Flags: HW
LayerCount: 2
Fore
SplineSet
46 188 m 4
 23 252 12 308 12 358 c 0
 12 504 108 579 262 585 c 4
 268 585 274 585 279 585 c 0
 290 585 300 585 310 585 c 0
 477 585 531 544 559 485 c 4
 564 474 568 460 568 446 c 0
 568 396 534 342 487 342 c 0
 474 342 459 346 444 356 c 4
 434 362 345 455 279 455 c 0
 263 455 246 449 235 435 c 4
 221 417 214 402 214 390 c 0
 214 329 359 326 359 282 c 0
 359 237 282 249 282 219 c 0
 282 215 283 210 286 205 c 4
 302 174 324 120 324 80 c 0
 324 66 322 52 315 44 c 4
 305 31 269 0 224 0 c 0
 173 0 108 39 46 188 c 4
EndSplineSet
Validated: 1
EndChar

StartChar: g
Encoding: 103 103 48
Width: 524
VWidth: 1
Flags: HW
LayerCount: 2
Fore
SplineSet
13 297 m 4
 32 524 177 608 290 608 c 0
 364 608 425 573 425 517 c 0
 425 511 424 503 422 496 c 4
 407 434 385 418 359 418 c 0
 331 418 300 436 272 436 c 0
 260 436 248 433 238 424 c 4
 194 385 175 336 175 298 c 0
 175 260 194 233 227 233 c 0
 230 233 232 233 235 234 c 4
 309 244 210 359 346 369 c 4
 350 369 353 369 357 369 c 0
 463 369 511 253 511 153 c 0
 511 77 483 8 432 8 c 0
 430 8 429 8 427 8 c 4
 389 11 374 16 346 16 c 0
 324 16 293 13 237 5 c 4
 230 4 225 3 218 3 c 0
 103 3 12 156 12 278 c 0
 12 284 12 291 13 297 c 4
EndSplineSet
Validated: 1
EndChar

StartChar: h
Encoding: 104 104 49
Width: 530
VWidth: -1
Flags: HW
LayerCount: 2
Fore
SplineSet
26 384 m 0
 37 505 92 603 171 603 c 0
 177 603 184 603 191 601 c 0
 259 588 271 540 271 491 c 0
 271 463 266 437 266 415 c 0
 266 392 272 376 292 376 c 0
 294 376 294 376 296 376 c 0
 363 382 333 537 396 559 c 0
 407 563 419 566 429 566 c 0
 481 566 517 518 517 457 c 0
 517 453 517 450 517 446 c 0
 511 356 473 293 454 216 c 0
 451 204 450 187 450 172 c 0
 450 140 454 105 454 73 c 0
 454 31 446 -1 411 -3 c 0
 409 -3 409 -4 407 -4 c 0
 289 -4 325 187 273 187 c 0
 271 187 270 187 268 186 c 0
 208 172 305 22 140 8 c 0
 139 8 140 8 139 8 c 0
 63 8 12 62 12 220 c 0
 12 265 17 320 26 384 c 0
EndSplineSet
Validated: 1
EndChar

StartChar: i
Encoding: 105 105 50
Width: 238
VWidth: 2
Flags: HW
LayerCount: 2
Fore
SplineSet
39 30 m 4
 19 57 12 85 12 114 c 0
 12 172 40 233 49 289 c 4
 51 298 52 308 52 318 c 0
 52 379 30 460 30 523 c 0
 30 576 45 616 105 618 c 4
 107 618 109 618 111 618 c 0
 200 618 225 566 225 504 c 0
 225 437 197 357 193 319 c 4
 192 312 192 304 192 297 c 0
 192 240 212 189 212 133 c 0
 212 124 212 114 210 105 c 4
 201 34 145 2 99 2 c 0
 73 2 51 13 39 30 c 4
EndSplineSet
Validated: 1
EndChar

StartChar: j
Encoding: 106 106 51
Width: 562
VWidth: 0
Flags: HW
LayerCount: 2
Fore
SplineSet
300 170 m 4
 343 213 373 288 373 356 c 0
 373 400 360 442 328 470 c 4
 311 484 293 490 273 490 c 0
 209 490 135 427 81 427 c 0
 48 427 22 451 12 527 c 4
 11 530 12 533 12 536 c 0
 12 591 92 601 172 601 c 0
 210 601 250 600 278 598 c 4
 370 594 549 592 549 509 c 0
 549 506 549 503 548 499 c 4
 540 448 538 402 538 362 c 0
 538 305 543 256 543 212 c 0
 543 174 538 138 525 103 c 4
 503 41 393 1 278 1 c 0
 210 1 139 16 86 49 c 4
 73 57 68 73 68 91 c 0
 68 113 77 137 90 151 c 4
 102 164 117 168 137 168 c 0
 172 168 216 153 252 153 c 0
 271 153 288 158 300 170 c 4
EndSplineSet
Validated: 1
EndChar

StartChar: k
Encoding: 107 107 52
Width: 594
VWidth: 1
Flags: HW
LayerCount: 2
Fore
SplineSet
97 576 m 4
 117 596 147 612 175 612 c 0
 184 612 193 610 201 606 c 4
 254 579 214 425 256 425 c 0
 259 425 262 425 266 427 c 4
 358 466 386 582 472 582 c 0
 522 582 581 558 581 500 c 0
 581 484 577 467 567 446 c 4
 530 372 342 296 342 258 c 0
 342 251 348 244 364 240 c 4
 456 217 581 157 581 93 c 0
 581 71 565 48 527 26 c 4
 499 11 472 4 446 4 c 0
 324 4 224 144 198 163 c 4
 196 165 194 166 193 166 c 0
 192 166 191 166 191 164 c 0
 191 154 212 112 212 74 c 0
 212 37 192 2 116 2 c 0
 115 2 116 2 115 2 c 4
 5 3 23 224 13 324 c 4
 12 333 12 343 12 353 c 0
 12 430 40 521 97 576 c 4
EndSplineSet
Validated: 1
EndChar

StartChar: l
Encoding: 108 108 53
Width: 497
VWidth: -1
Flags: HW
LayerCount: 2
Fore
SplineSet
27 50 m 4
 16 64 12 81 12 100 c 0
 12 152 45 214 45 264 c 0
 45 268 44 275 43 279 c 4
 38 314 33 366 33 418 c 0
 33 509 48 598 105 598 c 0
 106 598 108 598 109 598 c 4
 231 590 224 477 235 412 c 4
 236 409 236 405 236 401 c 0
 236 362 215 288 215 231 c 0
 215 205 219 183 232 170 c 4
 242 160 256 154 270 154 c 0
 311 154 365 190 411 190 c 0
 417 190 423 191 429 189 c 4
 467 180 484 138 484 98 c 0
 484 74 478 51 468 35 c 4
 446 3 407 -4 365 -4 c 0
 322 -4 274 3 235 5 c 4
 228 5 221 6 213 6 c 0
 198 6 182 5 166 5 c 0
 111 5 57 11 27 50 c 4
EndSplineSet
Validated: 1
EndChar

StartChar: m
Encoding: 109 109 54
Width: 700
VWidth: -3
Flags: HW
LayerCount: 2
Fore
SplineSet
145 -4 m 4
 51 11 12 142 12 273 c 0
 12 398 47 524 109 551 c 4
 130 560 149 564 165 564 c 0
 261 564 281 426 315 426 c 0
 317 426 321 426 323 428 c 4
 351 442 425 583 511 583 c 0
 524 583 537 580 551 572 c 4
 630 528 687 340 687 192 c 0
 687 96 664 16 606 4 c 4
 599 2 591 2 585 2 c 0
 469 2 553 261 452 263 c 4
 451 263 l 0
 411 263 427 208 342 182 c 4
 339 181 334 180 331 180 c 0
 291 180 294 273 260 275 c 4
 259 275 258 275 257 275 c 0
 163 275 240 -5 153 -5 c 0
 151 -5 147 -5 145 -4 c 4
EndSplineSet
Validated: 1
EndChar

StartChar: n
Encoding: 110 110 55
Width: 574
VWidth: -4
Flags: HW
LayerCount: 2
Fore
SplineSet
105 5 m 4
 48 21 12 179 12 322 c 0
 12 435 35 539 88 559 c 4
 98 563 108 565 118 565 c 0
 246 565 351 272 386 272 c 0
 390 272 393 276 395 284 c 4
 396 288 396 291 396 295 c 0
 396 344 336 428 336 491 c 0
 336 531 360 563 438 571 c 4
 441 571 444 571 447 571 c 0
 529 571 561 448 561 316 c 0
 561 176 526 26 471 5 c 4
 457 0 443 -2 431 -2 c 0
 305 -2 281 265 240 265 c 0
 235 265 230 262 224 252 c 4
 220 244 217 232 217 217 c 0
 217 184 225 136 225 95 c 0
 225 42 212 -2 154 -2 c 0
 140 -2 125 0 105 5 c 4
EndSplineSet
Validated: 1
EndChar

StartChar: o
Encoding: 111 111 56
Width: 585
VWidth: 1
Flags: HW
LayerCount: 2
Fore
SplineSet
290 606 m 4
 304 606 318 604 332 600 c 4
 468 565 572 420 572 281 c 0
 572 155 487 34 267 6 c 4
 251 4 235 3 221 3 c 0
 72 3 12 108 12 231 c 0
 12 402 130 606 286 606 c 0
 288 606 288 606 290 606 c 4
279 409 m 4
 253 405 237 365 237 330 c 0
 237 298 250 270 278 270 c 0
 279 270 280 270 281 270 c 4
 309 272 322 305 322 338 c 0
 322 373 308 409 283 409 c 0
 281 409 281 409 279 409 c 4
EndSplineSet
Validated: 1
EndChar

StartChar: p
Encoding: 112 112 57
Width: 556
VWidth: 0
Flags: HW
LayerCount: 2
Fore
SplineSet
180 599 m 4
 290 598 426 556 489 493 c 4
 523 459 543 400 543 344 c 0
 543 299 531 256 501 230 c 4
 487 218 464 215 438 215 c 0
 414 215 387 218 365 218 c 0
 331 218 303 212 303 183 c 0
 303 181 303 178 303 176 c 4
 305 165 306 153 306 140 c 0
 306 74 283 1 213 1 c 0
 193 1 171 7 144 20 c 4
 122 30 114 55 114 89 c 0
 114 171 160 300 160 357 c 0
 160 375 156 386 144 386 c 0
 140 386 133 384 126 381 c 4
 117 377 92 362 66 362 c 0
 38 362 12 380 12 454 c 0
 12 470 12 490 15 512 c 4
 23 574 92 599 177 599 c 0
 178 599 179 599 180 599 c 4
335 427 m 4
 323 427 310 398 310 376 c 0
 310 362 315 350 329 350 c 4
 330 350 l 0
 348 350 357 372 357 392 c 0
 357 410 350 427 335 427 c 4
EndSplineSet
Validated: 1
EndChar

StartChar: q
Encoding: 113 113 58
Width: 604
VWidth: 0
Flags: HW
LayerCount: 2
Fore
SplineSet
328 601 m 4
 432 600 501 545 552 458 c 4
 579 412 589 363 589 317 c 0
 589 245 563 183 534 163 c 4
 530 160 528 158 528 155 c 0
 528 137 591 113 591 76 c 0
 591 61 581 44 549 24 c 4
 529 10 511 6 495 6 c 0
 456 6 428 34 396 34 c 0
 392 34 385 34 381 32 c 4
 336 19 284 1 231 1 c 0
 172 1 111 25 63 107 c 4
 31 161 12 230 12 300 c 0
 12 417 67 535 213 582 c 4
 255 595 292 601 326 601 c 0
 327 601 327 601 328 601 c 4
252 432 m 4
 248 432 243 429 239 422 c 4
 218 393 210 369 210 350 c 0
 210 324 226 309 242 302 c 4
 244 301 245 302 247 302 c 0
 263 302 271 335 271 368 c 0
 271 400 265 432 252 432 c 4
EndSplineSet
Validated: 1
EndChar

StartChar: r
Encoding: 114 114 59
Width: 529
VWidth: 2
Flags: HW
LayerCount: 2
Fore
SplineSet
253 614 m 4
 345 614 436 584 464 534 c 4
 502 466 516 414 516 372 c 0
 516 294 465 254 423 228 c 4
 384 204 363 210 363 208 c 0
 363 207 368 205 377 197 c 4
 448 141 508 96 508 61 c 0
 508 40 488 23 436 9 c 4
 422 5 409 4 396 4 c 0
 298 4 240 104 214 104 c 0
 210 104 207 101 204 95 c 4
 192 71 182 11 121 11 c 0
 117 11 112 11 108 12 c 4
 36 21 12 47 12 82 c 0
 12 155 114 267 114 345 c 0
 114 361 109 375 99 388 c 4
 87 402 24 378 24 438 c 0
 24 455 30 480 44 515 c 4
 70 584 159 614 250 614 c 0
 251 614 252 614 253 614 c 4
266 430 m 4
 256 429 247 419 247 400 c 0
 247 390 249 378 256 364 c 4
 261 353 267 348 272 348 c 0
 283 348 292 369 292 387 c 4
 292 416 280 430 268 430 c 0
 266 430 l 4
EndSplineSet
Validated: 1
EndChar

StartChar: s
Encoding: 115 115 60
Width: 528
VWidth: -3
Flags: HW
LayerCount: 2
Fore
SplineSet
22 85 m 4
 20 96 19 107 19 116 c 0
 19 172 59 185 105 185 c 0
 147 185 193 173 214 173 c 0
 219 173 222 174 224 176 c 4
 234 186 238 194 238 202 c 0
 238 256 45 283 22 349 c 4
 15 368 12 386 12 402 c 0
 12 498 112 562 224 578 c 4
 245 581 265 583 283 583 c 0
 427 583 481 493 481 423 c 0
 481 377 458 338 420 338 c 0
 410 338 400 341 389 346 c 4
 378 351 365 354 351 354 c 0
 311 354 268 334 268 322 c 0
 268 318 274 316 286 314 c 4
 442 298 515 221 515 151 c 0
 515 149 515 148 515 146 c 4
 511 54 349 -1 212 -1 c 0
 117 -1 34 26 22 85 c 4
EndSplineSet
Validated: 1
EndChar

StartChar: t
Encoding: 116 116 61
Width: 658
VWidth: 0
Flags: HW
LayerCount: 2
Fore
SplineSet
298 5 m 4
 233 13 214 63 214 126 c 0
 214 214 252 328 252 381 c 0
 252 401 248 411 234 411 c 0
 230 411 223 410 216 407 c 4
 205 402 185 399 161 399 c 0
 98 399 12 421 12 489 c 0
 12 496 13 502 15 510 c 4
 31 580 73 600 123 600 c 0
 197 600 289 556 347 556 c 0
 409 556 477 574 533 574 c 0
 586 574 627 557 639 492 c 4
 643 472 645 454 645 440 c 0
 645 381 617 366 580 366 c 0
 539 366 485 385 447 385 c 0
 422 385 415 364 415 331 c 0
 415 280 433 203 433 135 c 0
 433 63 412 3 325 3 c 0
 317 3 308 3 298 5 c 4
EndSplineSet
Validated: 1
EndChar

StartChar: u
Encoding: 117 117 62
Width: 537
VWidth: -2
Flags: HW
LayerCount: 2
Fore
SplineSet
310 0 m 0
 84 0 12 159 12 313 c 0
 12 455 73 591 135 591 c 0
 137 591 138 591 140 591 c 4
 225 581 247 526 247 462 c 0
 247 394 223 317 223 268 c 0
 223 239 231 221 258 221 c 0
 271 221 289 224 311 234 c 4
 342 247 349 279 349 318 c 0
 349 361 340 412 340 458 c 0
 340 516 355 566 424 577 c 5
 482 561 524 434 524 304 c 0
 524 154 468 0 310 0 c 0
EndSplineSet
Validated: 1
EndChar

StartChar: v
Encoding: 118 118 63
Width: 633
VWidth: 1
Flags: HW
LayerCount: 2
Fore
SplineSet
272 5 m 4
 180 21 12 327 12 496 c 0
 12 547 27 585 64 599 c 4
 84 607 102 611 117 611 c 0
 268 611 229 281 273 281 c 0
 275 281 276 282 278 283 c 4
 346 315 261 611 474 611 c 0
 490 611 507 609 526 605 c 4
 591 593 620 534 620 456 c 0
 620 277 471 2 299 2 c 0
 290 2 282 3 272 5 c 4
EndSplineSet
Validated: 1
EndChar

StartChar: w
Encoding: 119 119 64
Width: 711
VWidth: -1
Flags: HW
LayerCount: 2
Fore
SplineSet
177 12 m 4
 85 20 12 229 12 390 c 0
 12 482 36 557 92 572 c 4
 103 575 113 576 122 576 c 0
 244 576 156 317 225 303 c 4
 226 303 227 303 228 303 c 0
 257 303 300 388 326 391 c 4
 328 391 328 392 330 392 c 0
 368 392 395 325 429 325 c 0
 430 325 430 325 431 325 c 4
 512 330 428 597 614 597 c 0
 615 597 617 597 618 597 c 4
 675 596 698 543 698 468 c 0
 698 292 571 0 457 0 c 0
 451 0 445 0 440 2 c 4
 346 28 382 158 320 167 c 4
 318 167 317 167 315 167 c 0
 259 167 277 12 185 12 c 0
 183 12 179 12 177 12 c 4
EndSplineSet
Validated: 1
EndChar

StartChar: x
Encoding: 120 120 65
Width: 600
VWidth: -2
Flags: HW
LayerCount: 2
Fore
SplineSet
43 30 m 4
 25 51 17 74 17 96 c 0
 17 172 106 250 182 286 c 4
 187 288 189 290 189 293 c 0
 189 319 12 372 12 469 c 0
 12 491 22 516 46 544 c 4
 74 576 101 589 127 589 c 0
 219 589 295 430 316 416 c 4
 318 414 319 414 321 414 c 0
 349 414 360 571 470 571 c 0
 484 571 500 569 516 564 c 4
 568 548 587 525 587 499 c 0
 587 426 437 330 437 274 c 0
 437 229 534 137 534 69 c 0
 534 39 515 15 463 1 c 4
 453 -1 444 -2 435 -2 c 0
 319 -2 299 199 260 199 c 0
 257 199 255 198 252 196 c 4
 202 161 158 0 93 0 c 0
 77 0 61 8 43 30 c 4
EndSplineSet
Validated: 1
EndChar

StartChar: y
Encoding: 121 121 66
Width: 620
VWidth: 0
Flags: HW
LayerCount: 2
Fore
SplineSet
230 14 m 4
 174 28 158 53 158 85 c 0
 158 133 197 194 197 241 c 0
 197 247 197 253 195 258 c 4
 184 303 12 443 12 531 c 0
 12 563 35 589 97 600 c 4
 113 603 127 604 140 604 c 0
 300 604 270 406 309 406 c 0
 312 406 316 407 320 410 c 4
 354 432 401 584 525 584 c 0
 532 584 539 583 546 582 c 4
 589 577 607 554 607 522 c 0
 607 444 498 314 380 261 c 4
 363 253 356 237 356 216 c 0
 356 174 380 113 380 67 c 0
 380 30 365 3 308 3 c 0
 288 3 262 6 230 14 c 4
EndSplineSet
Validated: 1
EndChar

StartChar: z
Encoding: 122 122 67
Width: 508
VWidth: 2
Flags: HW
LayerCount: 2
Fore
SplineSet
14 478 m 4
 17 565 157 614 285 614 c 0
 389 614 491 581 491 507 c 0
 491 462 347 383 347 305 c 0
 347 301 348 298 348 294 c 0
 348 256 269 211 269 184 c 0
 269 173 283 164 322 161 c 4
 323 161 323 161 324 161 c 0
 354 161 431 218 471 218 c 0
 486 218 495 209 495 188 c 0
 495 163 482 122 450 53 c 4
 436 23 357 5 271 5 c 0
 164 5 46 32 27 94 c 4
 26 98 26 100 26 104 c 0
 26 156 144 201 144 245 c 0
 144 247 144 249 143 251 c 4
 142 255 141 258 141 262 c 0
 141 322 252 365 252 419 c 0
 252 427 249 437 243 446 c 4
 237 454 231 458 223 458 c 0
 172 458 91 281 46 281 c 0
 26 281 12 316 12 418 c 0
 12 436 13 456 14 478 c 4
EndSplineSet
Validated: 1
EndChar

StartChar: question
Encoding: 63 63 68
Width: 516
VWidth: 0
Flags: HW
LayerCount: 2
Fore
SplineSet
14 634 m 4
 12 641 11 648 11 654 c 0
 11 736 150 805 237 805 c 0
 238 805 238 805 239 805 c 4
 340 804 465 716 474 615 c 4
 474 613 474 611 474 609 c 0
 474 493 207 441 207 344 c 0
 207 335 209 327 214 317 c 4
 222 301 235 295 253 295 c 0
 311 295 408 361 463 361 c 0
 480 361 494 355 500 337 c 4
 503 329 504 320 504 312 c 0
 504 224 343 152 242 152 c 0
 238 152 234 152 230 152 c 4
 140 158 38 244 28 334 c 4
 28 337 27 339 27 342 c 0
 27 439 227 498 227 584 c 0
 227 592 226 600 222 609 c 4
 215 625 199 630 179 630 c 0
 141 630 88 611 52 611 c 0
 33 611 19 616 14 634 c 4
245 99 m 0
 263 99 281 95 292 87 c 4
 303 79 310 61 310 45 c 0
 310 33 306 21 298 15 c 4
 288 8 274 5 259 5 c 0
 220 5 174 26 174 57 c 0
 174 85 210 99 245 99 c 0
EndSplineSet
Validated: 1
EndChar

StartChar: period
Encoding: 46 46 69
Width: 160
VWidth: 0
Flags: HW
LayerCount: 2
Fore
SplineSet
83 139 m 0
 101 139 119 134 130 122 c 4
 141 111 147 87 147 64 c 0
 147 46 143 28 135 19 c 4
 125 9 112 4 97 4 c 0
 58 4 12 35 12 79 c 0
 12 119 48 139 83 139 c 0
EndSplineSet
Validated: 1
EndChar

StartChar: divide
Encoding: 247 247 70
Width: 578
VWidth: 0
Flags: HW
LayerCount: 2
Fore
SplineSet
217 169 m 4
 212 179 209 190 209 202 c 0
 209 243 237 288 275 288 c 0
 296 288 320 274 344 237 c 4
 352 224 356 211 356 199 c 0
 356 160 318 129 279 129 c 0
 256 129 232 141 217 169 c 4
235 529 m 4
 233 533 233 537 233 541 c 0
 233 564 257 585 281 585 c 0
 296 585 310 577 319 556 c 4
 321 551 322 545 322 540 c 0
 322 515 299 495 276 495 c 0
 260 495 244 505 235 529 c 4
11 372 m 4
 10 377 10 381 10 385 c 0
 10 436 55 451 111 451 c 0
 161 451 220 439 261 434 c 4
 271 433 282 432 294 432 c 0
 348 432 417 444 472 444 c 0
 526 444 567 433 567 387 c 0
 567 341 525 328 470 328 c 0
 407 328 328 344 274 344 c 0
 272 344 271 344 269 344 c 4
 220 343 146 325 90 325 c 0
 48 325 16 335 11 372 c 4
EndSplineSet
Validated: 1
EndChar

StartChar: exclam
Encoding: 33 33 71
Width: 268
VWidth: 0
Flags: HW
LayerCount: 2
Fore
SplineSet
145 137 m 0
 163 137 181 132 192 120 c 4
 203 109 209 85 209 62 c 0
 209 44 205 26 197 17 c 4
 187 7 174 2 159 2 c 0
 120 2 74 33 74 77 c 0
 74 117 110 137 145 137 c 0
117 268 m 4
 53 460 11 559 11 644 c 0
 11 686 21 723 44 767 c 4
 61 799 82 811 105 811 c 0
 162 811 228 734 248 669 c 4
 254 650 256 626 256 598 c 0
 256 458 190 237 143 237 c 0
 133 237 124 246 117 268 c 4
EndSplineSet
Validated: 1
EndChar
